<?xml version="1.0" encoding="UTF-8" standalone="no"?><!-- Generator: Gravit.io --><svg xmlns="http://www.w3.org/2000/svg" xmlns:xlink="http://www.w3.org/1999/xlink" style="isolation:isolate" viewBox="0 0 300 75" width="300pt" height="75pt"><defs><clipPath id="_clipPath_4egmOJLSGSJDvNAHJgm0GmMHEdP7OBsv"><rect width="300" height="75"/></clipPath></defs><g clip-path="url(#_clipPath_4egmOJLSGSJDvNAHJgm0GmMHEdP7OBsv)"><rect width="300" height="75" style="fill:rgb(0,0,0)" fill-opacity="0"/><g><path d=" M 20 42.263 C 20 35.787 24.857 31.056 31.209 31.056 C 35.505 31.056 38.183 32.549 40.113 34.792 L 36.003 38.59 C 34.945 37.406 33.326 36.472 31.396 36.472 C 28.282 36.472 26.413 39.025 26.413 42.263 C 26.413 45.501 28.282 48.055 31.52 48.055 C 33.888 48.055 35.381 46.87 36.377 45.814 L 40.486 49.55 C 38.433 51.916 35.816 53.472 31.333 53.472 C 24.857 53.472 20 48.739 20 42.263 Z " fill="rgb(254,254,254)"/><path d=" M 57.879 42.263 C 57.879 38.838 55.888 36.348 52.65 36.348 C 49.41 36.348 47.419 38.838 47.419 42.263 C 47.419 45.688 49.41 48.179 52.65 48.179 C 55.888 48.179 57.879 45.688 57.879 42.263 Z  M 41.004 42.263 C 41.004 35.787 46.111 31.056 52.65 31.056 C 59.187 31.056 64.292 35.787 64.292 42.263 C 64.292 48.739 59.187 53.472 52.65 53.472 C 46.111 53.472 41.004 48.739 41.004 42.263 Z " fill="rgb(254,254,254)"/><path d=" M 66.865 31.616 L 73.091 31.616 L 73.091 34.355 C 74.462 32.051 76.766 31.055 79.754 31.055 C 84.487 31.055 87.788 34.355 87.788 40.022 L 87.788 52.913 L 81.562 52.913 L 81.562 40.457 C 81.562 38.092 80.315 36.66 77.761 36.66 C 74.773 36.66 73.091 38.279 73.091 41.454 L 73.091 52.913 L 66.865 52.913 L 66.865 31.616 Z " fill="rgb(254,254,254)"/><path d=" M 99.035 52.912 L 92.807 52.912 L 92.807 36.783 L 90.317 36.783 L 90.317 31.615 L 92.807 31.615 L 92.807 16.173 C 92.807 10.879 95.548 8.202 99.97 8.202 C 102.958 8.202 104.701 9.136 106.009 10.629 L 102.521 14.554 C 102.147 14.054 101.528 13.681 100.591 13.681 C 99.783 13.681 99.035 14.241 99.035 16.11 L 99.035 31.615 L 113.391 31.615 L 113.391 52.912 L 107.163 52.912 L 107.163 36.783 L 99.035 36.783 L 99.035 52.912 Z " fill="rgb(254,254,254)"/><path d=" M 106.354 21.839 C 106.354 19.597 108.223 17.915 110.279 17.915 C 112.396 17.915 114.2 19.597 114.2 21.839 C 114.2 24.08 112.396 25.762 110.279 25.762 C 108.223 25.762 106.354 24.08 106.354 21.839 Z " fill="rgb(255,65,26)"/><path d=" M 272.155 48.855 C 272.155 46.613 274.024 44.931 276.079 44.931 C 278.196 44.931 280 46.613 280 48.855 C 280 51.096 278.196 52.778 276.079 52.778 C 274.024 52.778 272.155 51.096 272.155 48.855 Z " fill="rgb(255,65,26)"/><path d=" M 131.413 39.523 C 131.413 37.406 129.981 35.974 127.738 35.974 C 125.496 35.974 124.065 37.406 124.065 39.523 C 124.065 41.64 125.496 43.074 127.738 43.074 C 129.981 43.074 131.413 41.64 131.413 39.523 Z  M 133.282 58.703 C 133.282 57.021 132.036 56.087 127.116 56.087 C 124.002 56.087 122.197 56.709 122.197 58.703 C 122.197 60.448 124.252 61.505 128.112 61.505 C 131.787 61.505 133.282 60.383 133.282 58.703 Z  M 139.01 31.617 L 139.01 36.348 L 135.959 36.348 C 136.457 37.282 136.83 38.339 136.83 39.523 C 136.83 44.443 132.969 47.992 127.738 47.992 C 126.182 47.992 124.75 47.681 123.568 47.183 C 123.255 47.494 123.005 47.931 123.005 48.553 C 123.005 49.737 123.629 50.295 128.61 50.545 C 136.644 50.982 139.447 53.907 139.447 58.516 C 139.447 63.31 135.959 66.798 128.112 66.798 C 120.516 66.798 116.405 63.684 116.405 59.264 C 116.405 56.274 118.024 54.592 120.577 53.722 C 118.772 52.912 117.837 51.167 117.837 49.3 C 117.837 47.309 118.896 45.812 120.764 44.941 C 119.458 43.509 118.648 41.64 118.648 39.523 C 118.648 34.603 122.509 31.056 127.738 31.056 C 129.046 31.056 130.23 31.241 131.226 31.617 L 139.01 31.617 Z " fill="rgb(254,254,254)"/><path d=" M 142.993 44.506 L 142.993 31.617 L 149.221 31.617 L 149.221 44.069 C 149.221 46.436 150.464 47.87 153.017 47.87 C 156.007 47.87 157.689 46.249 157.689 43.074 L 157.689 31.617 L 163.916 31.617 L 163.916 52.912 L 157.689 52.912 L 157.689 50.172 C 156.318 52.477 154.015 53.472 151.026 53.472 C 146.293 53.472 142.993 50.172 142.993 44.506 Z " fill="rgb(254,254,254)"/><path d=" M 168.897 31.616 L 175.123 31.616 L 175.123 34.915 C 176.555 31.99 178.982 31.055 181.225 31.055 C 182.718 31.055 183.777 31.49 184.587 31.99 L 182.596 37.345 C 181.786 36.908 180.977 36.66 179.919 36.66 C 176.929 36.66 175.123 38.466 175.123 42.886 L 175.123 52.913 L 168.897 52.913 L 168.897 31.616 Z " fill="rgb(254,254,254)"/><path d=" M 192.405 44.38 C 190.786 44.38 189.913 45.191 189.913 46.436 C 189.913 47.618 190.723 48.492 192.779 48.492 C 195.582 48.492 197.636 46.997 197.636 45.252 L 197.636 44.38 L 192.405 44.38 Z  M 193.715 36.285 C 191.471 36.285 189.852 37.157 188.607 38.589 L 184.808 35.103 C 187.175 32.424 190.289 31.055 194.087 31.055 C 200.128 31.055 203.864 34.169 203.864 40.458 L 203.864 52.912 L 197.636 52.912 L 197.636 50.982 C 196.204 52.662 194.15 53.473 191.658 53.473 C 187.361 53.473 183.75 51.354 183.75 46.373 C 183.75 42.201 187.424 40.147 192.094 40.147 L 197.636 40.147 C 197.573 37.283 195.956 36.285 193.715 36.285 Z " fill="rgb(254,254,254)"/><path d=" M 225.22 42.263 C 225.22 38.777 223.164 36.535 219.991 36.535 C 216.812 36.535 214.882 38.777 214.882 42.263 C 214.882 45.751 216.812 47.992 219.991 47.992 C 223.164 47.992 225.22 45.751 225.22 42.263 Z  M 215.008 50.484 L 215.008 52.912 L 208.782 52.912 L 208.782 8.701 L 215.008 8.701 L 215.008 34.042 C 216.19 32.175 218.37 31.056 221.608 31.056 C 227.15 31.056 231.633 35.787 231.633 42.263 C 231.633 48.739 227.15 53.472 221.608 53.472 C 218.37 53.472 216.19 52.351 215.008 50.484 Z " fill="rgb(254,254,254)"/><path d=" M 262.518 40.022 C 262.083 37.844 260.527 36.286 257.846 36.286 C 255.294 36.286 253.49 37.592 252.867 40.022 L 262.518 40.022 Z  M 258.347 48.242 C 261.086 48.242 262.704 47.182 263.889 46.187 L 267.624 49.922 C 265.694 51.978 262.891 53.473 258.469 53.473 C 251.061 53.473 246.328 48.74 246.328 42.264 C 246.328 35.788 251.372 31.055 257.846 31.055 C 265.319 31.055 269.554 36.97 269.057 44.381 L 252.804 44.381 C 253.425 46.747 255.231 48.242 258.347 48.242 Z " fill="rgb(254,254,254)"/><path d=" M 242.118 17.633 L 229.682 17.633 L 229.682 23.637 L 235.867 23.637 L 235.867 52.912 L 242.093 52.912 L 242.093 23.637 L 242.118 23.637 L 242.118 17.633 Z " fill="rgb(254,254,254)"/></g></g></svg>