<?xml version="1.0" encoding="UTF-8" standalone="no"?><!-- Generator: Gravit.io --><svg xmlns="http://www.w3.org/2000/svg" xmlns:xlink="http://www.w3.org/1999/xlink" style="isolation:isolate" viewBox="0 0 300 75" width="300pt" height="75pt"><defs><clipPath id="_clipPath_JfcvreC3ktGXniyUeMJZ9QEdQZT2FpHG"><rect width="300" height="75"/></clipPath></defs><g clip-path="url(#_clipPath_JfcvreC3ktGXniyUeMJZ9QEdQZT2FpHG)"><rect width="300" height="75" style="fill:rgb(0,0,0)" fill-opacity="0"/><g><path d=" M 192.891 28.058 L 196.497 28.058 L 196.497 47.605 L 196.497 47.605 Q 196.497 48.867 197.002 49.39 L 197.002 49.39 L 197.002 49.39 Q 197.507 49.913 198.769 49.913 L 198.769 49.913 L 207.605 49.913 L 207.786 52.69 L 207.786 52.69 Q 204.287 53.014 198.192 53.014 L 198.192 53.014 L 198.192 53.014 Q 192.891 53.014 192.891 48.11 L 192.891 48.11 L 192.891 28.058 Z  M 212.814 52.942 M 254.484 39.959 L 254.484 39.959 L 254.484 40.103 L 254.484 40.103 Q 257.189 40.356 258.325 41.997 L 258.325 41.997 L 258.325 41.997 Q 259.461 43.638 259.461 46.739 L 259.461 46.739 L 259.461 46.739 Q 259.461 50.49 257.676 51.86 L 257.676 51.86 L 257.676 51.86 Q 255.89 53.231 251.454 53.231 L 251.454 53.231 L 251.454 53.231 Q 245.36 53.231 242.078 52.942 L 242.078 52.942 L 242.078 28.058 L 242.078 28.058 Q 244.999 27.769 250.372 27.769 L 250.372 27.769 L 250.372 27.769 Q 255.061 27.769 256.882 29.122 L 256.882 29.122 L 256.882 29.122 Q 258.703 30.474 258.703 34.261 L 258.703 34.261 L 258.703 34.261 Q 258.703 36.966 257.694 38.354 L 257.694 38.354 L 257.694 38.354 Q 256.684 39.743 254.484 39.959 Z  M 245.612 30.835 L 245.612 38.661 L 250.661 38.661 L 250.661 38.661 Q 253.258 38.661 254.249 37.849 L 254.249 37.849 L 254.249 37.849 Q 255.241 37.038 255.241 34.694 L 255.241 34.694 L 255.241 34.694 Q 255.241 32.386 254.159 31.61 L 254.159 31.61 L 254.159 31.61 Q 253.077 30.835 250.192 30.835 L 250.192 30.835 L 245.612 30.835 Z  M 245.612 41.438 L 245.612 50.129 L 250.913 50.165 L 250.913 50.165 Q 253.763 50.165 254.79 49.354 L 254.79 49.354 L 254.79 49.354 Q 255.818 48.542 255.818 46.126 L 255.818 46.126 L 255.818 46.126 Q 255.818 43.421 254.718 42.447 L 254.718 42.447 L 254.718 42.447 Q 253.618 41.474 250.697 41.438 L 250.697 41.438 L 245.612 41.438 Z  M 277.364 42.664 L 277.364 42.664 L 272.315 41.257 L 272.315 41.257 Q 269.646 40.536 268.51 38.823 L 268.51 38.823 L 268.51 38.823 Q 267.374 37.11 267.374 34.189 L 267.374 34.189 L 267.374 34.189 Q 267.374 32.061 267.825 30.745 L 267.825 30.745 L 267.825 30.745 Q 268.276 29.428 269.394 28.743 L 269.394 28.743 L 269.394 28.743 Q 270.512 28.058 271.882 27.841 L 271.882 27.841 L 271.882 27.841 Q 273.253 27.625 275.561 27.625 L 275.561 27.625 L 275.561 27.625 Q 279.961 27.625 283.062 28.382 L 283.062 28.382 L 282.846 31.015 L 282.846 31.015 Q 277.617 30.835 275.705 30.835 L 275.705 30.835 L 275.705 30.835 Q 272.892 30.835 271.954 31.394 L 271.954 31.394 L 271.954 31.394 Q 271.017 31.953 271.017 34.297 L 271.017 34.297 L 271.017 34.297 Q 271.017 36.136 271.684 36.894 L 271.684 36.894 L 271.684 36.894 Q 272.351 37.651 274.01 38.084 L 274.01 38.084 L 278.951 39.454 L 278.951 39.454 Q 281.728 40.211 282.864 41.907 L 282.864 41.907 L 282.864 41.907 Q 284 43.602 284 46.523 L 284 46.523 L 284 46.523 Q 284 50.634 282.125 52.005 L 282.125 52.005 L 282.125 52.005 Q 280.249 53.375 275.525 53.375 L 275.525 53.375 L 275.525 53.375 Q 271.558 53.375 267.699 52.654 L 267.699 52.654 L 267.951 49.985 L 267.951 49.985 Q 273.577 50.165 275.597 50.165 L 275.597 50.165 L 275.597 50.165 Q 278.41 50.129 279.366 49.444 L 279.366 49.444 L 279.366 49.444 Q 280.321 48.759 280.321 46.487 L 280.321 46.487 L 280.321 46.487 Q 280.321 44.575 279.672 43.836 L 279.672 43.836 L 279.672 43.836 Q 279.023 43.097 277.364 42.664 Z  M 44.268 28.058 L 44.268 28.058 L 48.199 28.058 L 48.199 28.058 Q 49.606 28.058 49.678 29.536 L 49.678 29.536 L 50.688 52.942 L 47.081 52.942 L 46.216 31.051 L 45.494 31.051 L 40.445 48.759 L 40.445 48.759 Q 40.121 49.985 38.895 49.985 L 38.895 49.985 L 35.757 49.985 L 35.757 49.985 Q 34.495 49.985 34.17 48.759 L 34.17 48.759 L 29.085 31.051 L 28.4 31.051 L 27.57 52.942 L 24 52.942 L 24.938 29.536 L 24.938 29.536 Q 25.01 28.058 26.416 28.058 L 26.416 28.058 L 30.419 28.058 L 30.419 28.058 Q 31.537 28.058 31.934 29.284 L 31.934 29.284 L 36.154 43.854 L 36.154 43.854 Q 36.514 45.152 36.983 47.208 L 36.983 47.208 L 37.632 47.208 L 37.632 47.208 Q 38.065 45.297 38.498 43.818 L 38.498 43.818 L 42.681 29.284 L 42.681 29.284 Q 43.078 28.058 44.268 28.058 Z  M 57.519 52.942 M 102.255 45.08 L 104.599 52.942 L 100.74 52.942 L 98.612 45.188 L 98.612 45.188 Q 97.819 42.7 95.475 42.7 L 95.475 42.7 L 90.353 42.664 L 90.353 52.942 L 86.783 52.942 L 86.783 28.058 L 86.783 28.058 Q 89.849 27.733 95.475 27.733 L 95.475 27.733 L 95.475 27.733 Q 99.983 27.733 101.84 29.284 L 101.84 29.284 L 101.84 29.284 Q 103.697 30.835 103.697 34.946 L 103.697 34.946 L 103.697 34.946 Q 103.697 37.939 102.633 39.454 L 102.633 39.454 L 102.633 39.454 Q 101.569 40.969 99.117 41.293 L 99.117 41.293 L 99.117 41.474 L 99.117 41.474 Q 101.533 42.195 102.255 45.08 L 102.255 45.08 Z  M 90.353 30.871 L 90.353 39.598 L 95.402 39.598 L 95.402 39.598 Q 98.071 39.562 99.063 38.643 L 99.063 38.643 L 99.063 38.643 Q 100.055 37.723 100.055 35.162 L 100.055 35.162 L 100.055 35.162 Q 100.055 32.638 99.063 31.736 L 99.063 31.736 L 99.063 31.736 Q 98.071 30.835 95.402 30.835 L 95.402 30.835 L 95.402 30.835 Q 91.724 30.835 90.353 30.871 L 90.353 30.871 Z  M 127.768 28.058 L 131.482 28.058 L 124.125 51.932 L 124.125 51.932 Q 123.801 52.942 122.755 52.942 L 122.755 52.942 L 119.22 52.942 L 119.22 52.942 Q 118.175 52.942 117.85 51.932 L 117.85 51.932 L 110.493 28.058 L 114.207 28.058 L 119.834 47.424 L 119.834 47.424 Q 120.014 48.11 120.519 50.165 L 120.519 50.165 L 121.492 50.165 L 121.492 50.165 Q 121.709 49.119 122.178 47.424 L 122.178 47.424 L 127.768 28.058 Z  M 144.445 49.949 L 154.327 49.949 L 154.507 52.726 L 154.507 52.726 Q 151.225 53.014 143.832 53.014 L 143.832 53.014 L 143.832 53.014 Q 141.524 53.014 140.189 51.806 L 140.189 51.806 L 140.189 51.806 Q 138.855 50.598 138.819 48.542 L 138.819 48.542 L 138.819 32.458 L 138.819 32.458 Q 138.855 30.402 140.189 29.194 L 140.189 29.194 L 140.189 29.194 Q 141.524 27.986 143.832 27.986 L 143.832 27.986 L 143.832 27.986 Q 151.225 27.986 154.507 28.274 L 154.507 28.274 L 154.327 31.087 L 144.445 31.087 L 144.445 31.087 Q 143.363 31.087 142.912 31.61 L 142.912 31.61 L 142.912 31.61 Q 142.461 32.133 142.461 33.395 L 142.461 33.395 L 142.461 38.372 L 152.956 38.372 L 152.956 41.293 L 142.461 41.293 L 142.461 47.641 L 142.461 47.641 Q 142.461 48.903 142.912 49.426 L 142.912 49.426 L 142.912 49.426 Q 143.363 49.949 144.445 49.949 L 144.445 49.949 Z  M 163.214 28.058 L 166.82 28.058 L 166.82 47.605 L 166.82 47.605 Q 166.82 48.867 167.325 49.39 L 167.325 49.39 L 167.325 49.39 Q 167.83 49.913 169.092 49.913 L 169.092 49.913 L 177.928 49.913 L 178.108 52.69 L 178.108 52.69 Q 174.61 53.014 168.515 53.014 L 168.515 53.014 L 168.515 53.014 Q 163.214 53.014 163.214 48.11 L 163.214 48.11 L 163.214 28.058 Z " fill="rgb(255,255,255)"/><path d=" M 217.797 53.225 L 214.083 53.225 L 221.44 29.35 L 221.44 29.35 Q 221.765 28.34 222.81 28.34 L 222.81 28.34 L 226.345 28.34 L 226.345 28.34 Q 227.391 28.34 227.715 29.35 L 227.715 29.35 L 235.072 53.225 L 231.358 53.225 L 225.732 33.858 L 225.732 33.858 Q 225.551 33.173 225.046 31.117 L 225.046 31.117 L 224.073 31.117 L 224.073 31.117 Q 223.856 32.163 223.387 33.858 L 223.387 33.858 L 217.797 53.225 Z " fill="rgb(255,255,255)"/><path d=" M 62.035 52.93 L 58.32 52.93 L 65.677 29.055 L 65.677 29.055 Q 66.002 28.045 67.048 28.045 L 67.048 28.045 L 70.582 28.045 L 70.582 28.045 Q 71.628 28.045 71.952 29.055 L 71.952 29.055 L 79.31 52.93 L 75.595 52.93 L 69.969 33.563 L 69.969 33.563 Q 69.789 32.878 69.284 30.822 L 69.284 30.822 L 68.31 30.822 L 68.31 30.822 Q 68.093 31.868 67.625 33.563 L 67.625 33.563 L 62.035 52.93 Z " fill="rgb(255,255,255)"/></g></g></svg>